<?xml version="1.0" encoding="utf-8"?>
<!-- Generator: Adobe Illustrator 16.0.0, SVG Export Plug-In . SVG Version: 6.00 Build 0)  -->
<!DOCTYPE svg PUBLIC "-//W3C//DTD SVG 1.1//EN" "http://www.w3.org/Graphics/SVG/1.1/DTD/svg11.dtd">
<svg version="1.1" id="Layer_1" xmlns="http://www.w3.org/2000/svg" xmlns:xlink="http://www.w3.org/1999/xlink" x="0px" y="0px"
	 width="114.626px" height="189.036px" viewBox="0 0 114.626 189.036" enable-background="new 0 0 114.626 189.036"
	 xml:space="preserve">
<g>
	<path fill="#E0704B" d="M76.974,77.914c-1.715-0.627-3.468-1.173-5.255-1.634C73.506,76.742,75.259,77.288,76.974,77.914z"/>
	<path fill="#E0704B" d="M70.964,71.09c7.552-7.542,7.552-19.782,0.013-27.324c-7.539-7.543-19.777-7.543-27.324,0
		c-7.551,7.551-7.556,19.782-0.013,27.333c0.223,0.222,1.854,1.853,4.157,4.156c3.103-0.518,6.284-0.801,9.534-0.799
		c4.917,0,9.69,0.622,14.245,1.788c-1.556-0.398-3.134-0.74-4.738-1.009L70.964,71.09z"/>
	<path fill="#E0704B" d="M33,79.86c-0.002-0.002-0.011-0.011-0.013-0.013C21.012,66.854,21.293,46.629,33.9,34.022
		c12.934-12.925,33.896-12.934,46.826,0c12.606,12.607,12.879,32.832,0.896,45.826c-0.651-0.308-1.311-0.6-1.976-0.882
		c8.239,3.488,15.481,8.858,21.215,15.559c8.576-10.016,13.765-23.013,13.765-37.221c0-31.636-25.655-57.32-57.328-57.303
		C25.659-0.017,0,25.634,0,57.278c0,14.22,5.193,27.22,13.77,37.238C19.038,88.364,25.582,83.34,33,79.86z"/>
	<path fill="#E0704B" d="M79.594,78.944c-0.82-0.348-1.651-0.673-2.489-0.982C77.944,78.271,78.774,78.598,79.594,78.944z"/>
	<path fill="#3EA9A4" d="M81.624,109.183c0.002,0.003,0.013,0.014,0.014,0.015c11.979,12.993,11.699,33.217-0.912,45.816
		c-12.934,12.926-33.896,12.934-46.826,0c-12.603-12.606-12.875-32.823-0.892-45.816c4.63,2.177,9.586,3.742,14.792,4.613
		l-4.139,4.135c-7.547,7.543-7.552,19.782-0.009,27.334c7.547,7.542,19.778,7.542,27.324-0.01c7.547-7.542,7.56-19.781,0.013-27.331
		c-0.224-0.22-1.857-1.851-4.162-4.154c-3.101,0.517-6.281,0.798-9.529,0.796c-17.422,0-33.019-7.79-43.529-20.064
		C5.192,104.532,0,117.531,0,131.743c0,31.636,25.659,57.319,57.332,57.293c31.64,0.025,57.295-25.632,57.295-57.277
		c0-14.218-5.191-27.218-13.765-37.234C95.592,100.679,89.046,105.704,81.624,109.183z"/>
	<path fill="#635442" d="M79.646,78.966c-0.017-0.008-0.035-0.014-0.052-0.021c-0.82-0.346-1.65-0.673-2.489-0.982
		c-0.043-0.016-0.087-0.033-0.131-0.048c-1.715-0.626-3.468-1.172-5.255-1.634c-0.047-0.012-0.095-0.025-0.143-0.037
		c-4.555-1.166-9.327-1.788-14.245-1.788c-3.25-0.001-6.432,0.281-9.534,0.799c6.738,6.737,19.25,19.251,19.25,19.251l-0.016,0.016
		c6.644,6.665,14.301,14.35,14.593,14.661c7.422-3.479,13.968-8.504,19.237-14.658C95.127,87.824,87.885,82.454,79.646,78.966z"/>
	<path fill="#635442" d="M57.299,114.58c3.249,0.002,6.429-0.279,9.529-0.796c-6.74-6.737-19.249-19.253-19.249-19.253l0.017-0.017
		C40.946,87.841,33.281,80.148,33,79.86c-7.418,3.48-13.962,8.503-19.23,14.655C24.28,106.79,39.877,114.58,57.299,114.58z"/>
	<path fill="#FFFFFF" d="M79.646,78.966c-0.017-0.008-0.035-0.014-0.052-0.021C79.611,78.952,79.629,78.958,79.646,78.966z"/>
	<path fill="#FFFFFF" d="M71.719,76.28c-0.047-0.012-0.095-0.024-0.143-0.037C71.624,76.255,71.671,76.268,71.719,76.28z"/>
	<path fill="#FFFFFF" d="M77.104,77.962c-0.043-0.016-0.087-0.033-0.131-0.048C77.018,77.93,77.061,77.946,77.104,77.962z"/>
	<path fill="#FFFFFF" d="M81.638,109.198c-0.001-0.001-0.012-0.012-0.014-0.015c-0.292-0.311-7.949-7.996-14.593-14.661l0.016-0.016
		c0,0-12.512-12.514-19.25-19.251c-2.303-2.303-3.934-3.934-4.157-4.156c-7.543-7.551-7.539-19.782,0.013-27.333
		c7.547-7.543,19.786-7.543,27.324,0c7.539,7.542,7.539,19.782-0.013,27.324l-4.126,4.144c1.604,0.269,3.183,0.611,4.738,1.009
		c0.048,0.012,0.095,0.024,0.143,0.037c1.787,0.461,3.54,1.007,5.255,1.634c0.044,0.016,0.087,0.032,0.131,0.048
		c0.838,0.309,1.669,0.634,2.489,0.982c0.018,0.007,0.035,0.014,0.052,0.021c0.665,0.282,1.324,0.574,1.976,0.882
		c11.983-12.994,11.711-33.218-0.896-45.826c-12.93-12.934-33.892-12.925-46.826,0c-12.607,12.607-12.888,32.832-0.912,45.826
		c0.001,0.001,0.011,0.011,0.013,0.013c0.281,0.288,7.945,7.98,14.596,14.654l-0.017,0.017c0,0,12.509,12.516,19.249,19.253
		c2.304,2.303,3.938,3.934,4.162,4.154c7.547,7.55,7.534,19.789-0.013,27.331c-7.546,7.553-19.777,7.553-27.324,0.01
		c-7.543-7.552-7.539-19.791,0.009-27.334l4.139-4.135c-5.207-0.871-10.163-2.436-14.792-4.613
		c-11.983,12.993-11.711,33.209,0.892,45.816c12.93,12.934,33.892,12.926,46.826,0C93.337,142.415,93.618,122.19,81.638,109.198z"/>
</g>
</svg>
